<svg xmlns="http://www.w3.org/2000/svg" viewBox="0 0 640 360">
  <defs>
    <linearGradient id="g" x1="0" y1="0" x2="1" y2="1">
      <stop offset="0%" stop-color="#0C0C0C"/>
      <stop offset="100%" stop-color="#1a1208"/>
    </linearGradient>
  </defs>
  <rect width="640" height="360" fill="url(#g)"/>
  <rect x="1" y="1" width="638" height="358" fill="none" stroke="#C9A84C" stroke-width="0.6" opacity="0.3"/>
  <rect x="20" y="20" width="600" height="320" fill="none" stroke="#C9A84C" stroke-width="0.3" opacity="0.12"/>
  <line x1="0" y1="120" x2="640" y2="120" stroke="#C9A84C" stroke-width="0.3" opacity="0.07"/>
  <line x1="0" y1="240" x2="640" y2="240" stroke="#C9A84C" stroke-width="0.3" opacity="0.07"/>
  <line x1="213" y1="0" x2="213" y2="360" stroke="#C9A84C" stroke-width="0.3" opacity="0.07"/>
  <line x1="427" y1="0" x2="427" y2="360" stroke="#C9A84C" stroke-width="0.3" opacity="0.07"/>
  <path d="M30,30 L30,55 M30,30 L55,30" stroke="#C9A84C" stroke-width="1.5" fill="none" opacity="0.5"/>
  <path d="M610,30 L610,55 M610,30 L585,30" stroke="#C9A84C" stroke-width="1.5" fill="none" opacity="0.5"/>
  <path d="M30,330 L30,305 M30,330 L55,330" stroke="#C9A84C" stroke-width="1.5" fill="none" opacity="0.5"/>
  <path d="M610,330 L610,305 M610,330 L585,330" stroke="#C9A84C" stroke-width="1.5" fill="none" opacity="0.5"/>
  <circle cx="320" cy="155" r="46" fill="rgba(201,168,76,0.08)" stroke="#C9A84C" stroke-width="1" opacity="0.5"/>
  <circle cx="320" cy="155" r="32" fill="#C9A84C" opacity="0.93"/>
  <polygon points="313,143 313,167 337,155" fill="#0C0C0C"/>
  <circle cx="320" cy="155" r="58" fill="none" stroke="#C9A84C" stroke-width="0.5" opacity="0.2"/>
  <text x="320" y="225" text-anchor="middle" font-family="Georgia,serif" font-size="18" fill="#F2EDE4" letter-spacing="2">Our Work in Action</text>
  <line x1="260" y1="233" x2="380" y2="233" stroke="#C9A84C" stroke-width="0.8" opacity="0.35"/>
  <text x="320" y="252" text-anchor="middle" font-family="Arial,sans-serif" font-size="9" fill="#C9A84C" letter-spacing="4" opacity="0.8">PROJECT SHOWCASE</text>
  <text x="320" y="316" text-anchor="middle" font-family="Georgia,serif" font-size="10" fill="#C9A84C" opacity="0.22" letter-spacing="8">T&amp;Z GOLDEN LLC</text>
  <text x="48" y="344" font-family="Arial,sans-serif" font-size="9" fill="#C9A84C" opacity="0.28" letter-spacing="2">02</text>
</svg>